# xmcd
#
# Track frame offsets: 
#        150
#        12446
#        28267
#        40072
#        53253
#        68642
#        84043
#        99175
#        107765
#        124238
#        135543
#        142754
#
# Disc length: 2080 seconds
#
# Revision: 0
# Processed by: cddbd v1.5.2PL0 Copyright (c) Steve Scherf et al.
# Submitted via: ExactAudioCopy v0.99pb5
#
DISCID=8a081e0c
DTITLE=Bic Runga - Close Your Eyes
DYEAR=2016
DGENRE=Blues
TTITLE0=Close Your Eyes
TTITLE1=What'Cha Say
TTITLE2=Wolves
TTITLE3=Things Behind The Sun
TTITLE4=Tinseltown In The Rain
TTITLE5=The First Time I Ever Saw Your Face
TTITLE6=Andmoreagain
TTITLE7=Viens
TTITLE8=Dream A Dream
TTITLE9=The Lonely Sea
TTITLE10=Life Will Get Better Some Day
TTITLE11=Only Love Can Break Your Heart
EXTD=
EXTT0=
EXTT1=
EXTT2=
EXTT3=
EXTT4=
EXTT5=
EXTT6=
EXTT7=
EXTT8=
EXTT9=
EXTT10=
EXTT11=
PLAYORDER=
